# xmcd CD database file
#
# Track frame offsets:
#	150
#	41850
#	71270
#	99050
#	138172
#	164151
#	182956
#
# Disc length: 3049 seconds
#
# Revision: 0
# Processed by: cddbd v1.5.1PL0 Copyright (c) Steve Scherf et al.
# Submitted via: CDex 1.51
#
DISCID=5c0be707
DTITLE=Medwyn Goodall  - Medicine Woman III
DYEAR=2004
DGENRE=New Age
TTITLE0=Invocation Part 3
TTITLE1=Farewell To The Darkness
TTITLE2=Faith
TTITLE3=Sherpa
TTITLE4=Divinity
TTITLE5=Hymn For The Loss Of Innocence
TTITLE6=Temple Journey Part 2
EXTD=YEAR: 2004
EXTT0=
EXTT1=
EXTT2=
EXTT3=
EXTT4=
EXTT5=
EXTT6=
PLAYORDER=
